<svg width="23" height="22" viewBox="0 0 23 22" fill="none" xmlns="http://www.w3.org/2000/svg">
<path d="M19.6312 0H2.52013C1.17568 0 0.0756836 1.1 0.0756836 2.44444V19.5556C0.0756836 20.9012 1.17568 22 2.52013 22H11.0757V13.4444H8.63124V10.4194H11.0757V7.91389C11.0757 5.269 12.557 3.41122 15.6786 3.41122L17.8822 3.41367V6.59756H16.4192C15.2043 6.59756 14.7423 7.50933 14.7423 8.35511V10.4207H17.881L17.1868 13.4444H14.7423V22H19.6312C20.9757 22 22.0757 20.9012 22.0757 19.5556V2.44444C22.0757 1.1 20.9757 0 19.6312 0Z" fill="#262626"/>
</svg>
