<svg width="23" height="22" viewBox="0 0 23 22" fill="none" xmlns="http://www.w3.org/2000/svg">
<path fill-rule="evenodd" clip-rule="evenodd" d="M6.54068 0.066C7.71368 0.012 8.08768 0 11.0757 0C14.0637 0 14.4377 0.013 15.6097 0.066C16.7817 0.119 17.5817 0.306 18.2817 0.577C19.0147 0.854 19.6797 1.287 20.2297 1.847C20.7897 2.396 21.2217 3.06 21.4977 3.794C21.7697 4.494 21.9557 5.294 22.0097 6.464C22.0637 7.639 22.0757 8.013 22.0757 11C22.0757 13.988 22.0627 14.362 22.0097 15.535C21.9567 16.705 21.7697 17.505 21.4977 18.205C21.2217 18.9391 20.789 19.6042 20.2297 20.154C19.6797 20.714 19.0147 21.146 18.2817 21.422C17.5817 21.694 16.7817 21.88 15.6117 21.934C14.4377 21.988 14.0637 22 11.0757 22C8.08768 22 7.71368 21.987 6.54068 21.934C5.37068 21.881 4.57068 21.694 3.87068 21.422C3.1366 21.146 2.4715 20.7133 1.92168 20.154C1.36206 19.6047 0.928998 18.9399 0.652684 18.206C0.381684 17.506 0.195684 16.706 0.141684 15.536C0.0876836 14.361 0.0756836 13.987 0.0756836 11C0.0756836 8.012 0.0886836 7.638 0.141684 6.466C0.194684 5.294 0.381684 4.494 0.652684 3.794C0.929406 3.06008 1.3628 2.39531 1.92268 1.846C2.47172 1.2865 3.13616 0.853443 3.86968 0.577C4.56968 0.306 5.36968 0.12 6.53968 0.066H6.54068ZM15.5207 2.046C14.3607 1.993 14.0127 1.982 11.0757 1.982C8.13868 1.982 7.79068 1.993 6.63068 2.046C5.55768 2.095 4.97568 2.274 4.58768 2.425C4.07468 2.625 3.70768 2.862 3.32268 3.247C2.95773 3.60205 2.67686 4.03428 2.50068 4.512C2.34968 4.9 2.17068 5.482 2.12168 6.555C2.06868 7.715 2.05768 8.063 2.05768 11C2.05768 13.937 2.06868 14.285 2.12168 15.445C2.17068 16.518 2.34968 17.1 2.50068 17.488C2.67668 17.965 2.95768 18.398 3.32268 18.753C3.67768 19.118 4.11068 19.399 4.58768 19.575C4.97568 19.726 5.55768 19.905 6.63068 19.954C7.79068 20.007 8.13768 20.018 11.0757 20.018C14.0137 20.018 14.3607 20.007 15.5207 19.954C16.5937 19.905 17.1757 19.726 17.5637 19.575C18.0767 19.375 18.4437 19.138 18.8287 18.753C19.1937 18.398 19.4747 17.965 19.6507 17.488C19.8017 17.1 19.9807 16.518 20.0297 15.445C20.0827 14.285 20.0937 13.937 20.0937 11C20.0937 8.063 20.0827 7.715 20.0297 6.555C19.9807 5.482 19.8017 4.9 19.6507 4.512C19.4507 3.999 19.2137 3.632 18.8287 3.247C18.4736 2.88207 18.0414 2.60121 17.5637 2.425C17.1757 2.274 16.5937 2.095 15.5207 2.046ZM9.67068 14.391C10.4553 14.7176 11.3291 14.7617 12.1426 14.5157C12.9562 14.2697 13.6591 13.7489 14.1313 13.0422C14.6035 12.3356 14.8157 11.4869 14.7317 10.6411C14.6477 9.79534 14.2727 9.00497 13.6707 8.405C13.2869 8.02148 12.8229 7.72781 12.312 7.54515C11.8011 7.36248 11.2561 7.29536 10.7162 7.34862C10.1762 7.40187 9.65484 7.57418 9.18949 7.85313C8.72414 8.13208 8.32643 8.51074 8.02499 8.96185C7.72355 9.41296 7.52587 9.92529 7.4462 10.462C7.36653 10.9986 7.40684 11.5463 7.56422 12.0655C7.72161 12.5847 7.99217 13.0626 8.3564 13.4647C8.72064 13.8668 9.16951 14.1832 9.67068 14.391ZM7.07768 7.002C7.60271 6.47697 8.226 6.0605 8.91198 5.77636C9.59796 5.49222 10.3332 5.34597 11.0757 5.34597C11.8182 5.34597 12.5534 5.49222 13.2394 5.77636C13.9254 6.0605 14.5487 6.47697 15.0737 7.002C15.5987 7.52702 16.0152 8.15032 16.2993 8.8363C16.5835 9.52228 16.7297 10.2575 16.7297 11C16.7297 11.7425 16.5835 12.4777 16.2993 13.1637C16.0152 13.8497 15.5987 14.473 15.0737 14.998C14.0133 16.0583 12.5752 16.654 11.0757 16.654C9.57614 16.654 8.13802 16.0583 7.07768 14.998C6.01735 13.9377 5.42166 12.4995 5.42166 11C5.42166 9.50046 6.01735 8.06234 7.07768 7.002ZM17.9837 6.188C18.1138 6.06527 18.2179 5.91768 18.29 5.75397C18.362 5.59027 18.4005 5.41377 18.4031 5.23493C18.4057 5.05609 18.3724 4.87855 18.3052 4.71281C18.2379 4.54707 18.1381 4.39651 18.0116 4.27004C17.8852 4.14357 17.7346 4.04376 17.5689 3.97652C17.4031 3.90928 17.2256 3.87598 17.0468 3.87858C16.8679 3.88119 16.6914 3.91965 16.5277 3.9917C16.364 4.06374 16.2164 4.1679 16.0937 4.298C15.855 4.55103 15.7243 4.88712 15.7294 5.23493C15.7345 5.58274 15.8749 5.91488 16.1208 6.16084C16.3668 6.40681 16.6989 6.54723 17.0468 6.5523C17.3946 6.55737 17.7307 6.42669 17.9837 6.188Z" fill="#262626"/>
</svg>
