<svg width="23" height="22" viewBox="0 0 23 22" fill="none" xmlns="http://www.w3.org/2000/svg">
<path fill-rule="evenodd" clip-rule="evenodd" d="M0.0756839 1.838C0.0756839 1.35053 0.26933 0.883032 0.614022 0.53834C0.958713 0.193648 1.42622 2.45031e-06 1.91368 2.45031e-06H20.2357C20.4773 -0.000392101 20.7165 0.0468654 20.9398 0.139069C21.1631 0.231273 21.366 0.366612 21.5369 0.537339C21.7078 0.708065 21.8434 0.910826 21.9359 1.13401C22.0283 1.3572 22.0758 1.59643 22.0757 1.838V20.16C22.0759 20.4016 22.0286 20.6409 21.9363 20.8642C21.8439 21.0875 21.7085 21.2904 21.5377 21.4613C21.3669 21.6322 21.1641 21.7678 20.9408 21.8602C20.7176 21.9526 20.4783 22.0001 20.2367 22H1.91368C1.67223 22 1.43314 21.9524 1.21008 21.86C0.987019 21.7676 0.784355 21.6321 0.613668 21.4613C0.442981 21.2905 0.307616 21.0878 0.215306 20.8647C0.122997 20.6416 0.0755525 20.4025 0.0756839 20.161V1.838ZM8.78368 8.388H11.7627V9.884C12.1927 9.024 13.2927 8.25 14.9457 8.25C18.1147 8.25 18.8657 9.963 18.8657 13.106V18.928H15.6587V13.822C15.6587 12.032 15.2287 11.022 14.1367 11.022C12.6217 11.022 11.9917 12.111 11.9917 13.822V18.928H8.78368V8.388ZM3.28368 18.791H6.49168V8.25H3.28368V18.79V18.791ZM6.95068 4.812C6.95673 5.08668 6.90786 5.35979 6.80692 5.61532C6.70599 5.87084 6.55504 6.10364 6.36292 6.30003C6.1708 6.49643 5.94138 6.65248 5.68814 6.75901C5.4349 6.86554 5.16292 6.92042 4.88818 6.92042C4.61344 6.92042 4.34147 6.86554 4.08823 6.75901C3.83499 6.65248 3.60557 6.49643 3.41345 6.30003C3.22133 6.10364 3.07038 5.87084 2.96944 5.61532C2.86851 5.35979 2.81964 5.08668 2.82568 4.812C2.83756 4.27286 3.06007 3.75979 3.44557 3.38269C3.83107 3.00558 4.34891 2.79442 4.88818 2.79442C5.42746 2.79442 5.9453 3.00558 6.3308 3.38269C6.7163 3.75979 6.93881 4.27286 6.95068 4.812Z" fill="#262626"/>
</svg>
