<svg width="28" height="22" viewBox="0 0 28 22" fill="none" xmlns="http://www.w3.org/2000/svg">
<path d="M8.50508 22C18.7227 22 24.3121 13.5338 24.3121 6.20484C24.3121 5.96793 24.3121 5.72764 24.3019 5.49073C25.3901 4.70298 26.3293 3.72769 27.0755 2.61057C26.059 3.05876 24.9818 3.35414 23.8789 3.48714C25.0406 2.79272 25.9108 1.70011 26.3275 0.412382C25.236 1.05902 24.0414 1.51296 22.7959 1.75431C21.9585 0.862552 20.8505 0.271788 19.6434 0.0735279C18.4363 -0.124733 17.1975 0.0805743 16.1189 0.657647C15.0404 1.23472 14.1821 2.15135 13.6773 3.26556C13.1724 4.37977 13.049 5.62937 13.3262 6.82081C11.1174 6.71006 8.9566 6.13625 6.98385 5.13662C5.01111 4.13698 3.27052 2.73384 1.87498 1.0182C1.16651 2.24181 0.950305 3.68919 1.27026 5.06643C1.59021 6.44367 2.42233 7.64751 3.59765 8.43349C2.71692 8.40357 1.85555 8.16707 1.08302 7.74307V7.81922C1.08454 9.10104 1.52859 10.343 2.34012 11.3352C3.15165 12.3275 4.28088 13.009 5.53694 13.2648C5.06018 13.3961 4.56768 13.4616 4.07317 13.4594C3.72454 13.4604 3.37662 13.4281 3.03415 13.3629C3.38915 14.4663 4.0804 15.4311 5.01107 16.122C5.94175 16.813 7.06524 17.1955 8.22418 17.2161C6.25538 18.7624 3.8234 19.6011 1.31993 19.5971C0.878804 19.5989 0.437985 19.5735 0 19.5209C2.54089 21.1408 5.49175 22.0009 8.50508 22Z" fill="#262626"/>
</svg>
